# xmcd
#
# Track frame offsets:
#	150
#	14665
#	27676
#	44453
#	58262
#	75671
#	91194
#	106953
#	122712
#	136591
#
# Disc length: 2036 seconds
#
# Revision: 0
# Processed by: cddbd v1.5.2PL0 Copyright (c) Steve Scherf et al.
# Submitted via: audiograbber 1.83.01
#
DISCID=8207f20a
DTITLE=Various Artist - CD TEX Vol. 68 August 2008
DYEAR=2008
DGENRE=Country
TTITLE0=Nick Gibson - Whiskey Holler
TTITLE1=The Derailers - Bad, Bad Girl
TTITLE2=Greg Caldwell - Drive Her Out Of Mind
TTITLE3=Steve Helms Band - What's It Gonna Take
TTITLE4=Mo Robson Band - Even Angels Fall
TTITLE5=Wicked Brew Band - Beer Muscles
TTITLE6=Jerry Lee Surber - She's The Reason I Left Texas
TTITLE7=Stewart Mann and The Statesboro Revue - Stuck In Here
TTITLE8=Larry Youngblood - Tears On The Bayou
TTITLE9=Larry Youngblood - Sue Me
EXTD=
EXTT0=
EXTT1=
EXTT2=
EXTT3=
EXTT4=
EXTT5=
EXTT6=
EXTT7=
EXTT8=
EXTT9=
PLAYORDER=
